<?xml version="1.0" standalone="no"?>
<!DOCTYPE svg PUBLIC "-//W3C//DTD SVG 20010904//EN"
 "http://www.w3.org/TR/2001/REC-SVG-20010904/DTD/svg10.dtd">
<svg version="1.0" xmlns="http://www.w3.org/2000/svg"
 width="1024.000000pt" height="1024.000000pt" viewBox="0 0 1024.000000 1024.000000"
 preserveAspectRatio="xMidYMid meet">
<metadata>
Created by potrace 1.11, written by Peter Selinger 2001-2013
</metadata>
<g transform="translate(0.000000,1024.000000) scale(0.100000,-0.100000)"
fill="#000000" stroke="none">
<path d="M4262 8499 c-334 -43 -740 -320 -929 -634 -80 -132 -1055 -1981
-1086 -2060 -73 -185 -107 -366 -114 -615 -10 -350 51 -627 204 -935 147 -295
981 -1888 1016 -1940 163 -245 601 -511 912 -555 56 -8 353 -10 975 -8 857 3
897 4 940 22 284 122 406 423 278 685 -54 113 -183 220 -313 262 -31 10 -234
14 -905 19 l-865 5 -58 28 c-34 17 -74 48 -98 76 -54 63 -987 1843 -1022 1950
-36 111 -51 211 -50 346 0 128 10 199 45 308 13 42 211 422 514 985 516 962
537 996 628 1045 l41 22 890 5 890 5 57 23 c235 95 364 355 300 603 -47 179
-211 329 -392 358 -77 13 -1761 13 -1858 0z"/>
<path d="M6190 6125 c-345 -74 -610 -323 -701 -660 -31 -113 -32 -345 -1 -456
88 -324 344 -574 669 -656 102 -26 342 -23 444 5 352 96 612 382 670 736 15
94 7 276 -16 366 -26 101 -105 256 -173 342 -34 43 -96 105 -138 138 -85 68
-246 150 -344 175 -89 23 -323 29 -410 10z"/>
</g>
</svg>
